# 3ds Max Wavefront OBJ Exporter v0.97b - (c)2007 guruware
# File Created: 05.04.2013 06:08:57

#
# object 20255_Triangular_Prism
#

v  4.5973 -4.8484 -0.0000
v  0.0000 -4.8484 7.9628
v  -4.5973 -4.8484 -0.0000
v  -0.0000 4.8484 7.9628
v  -4.5973 4.8484 -0.0000
v  4.5973 4.8484 -0.0000
# 6 vertices

vn 0.0000 -1.0000 0.0000
vn -0.8660 -0.0000 0.5000
vn 0.8660 0.0000 0.5000
vn -0.0000 -0.0000 -1.0000
vn -0.0000 1.0000 -0.0000
# 5 vertex normals

vt 0.4167 0.0000 1.0000
vt 0.0833 0.0000 1.0000
vt -0.2500 0.0000 1.0000
vt 0.0833 1.0000 1.0000
vt -0.2500 1.0000 1.0000
vt 0.4167 1.0000 1.0000
vt 0.7500 0.0000 1.0000
vt 0.7500 1.0000 1.0000
vt 0.3333 1.0000 -2.0000
# 9 texture coords

g 20255_Triangular_Prism
s 1
f 1/1/1 2/2/1 3/3/1 
s 2
f 3/3/2 2/2/2 4/4/2 5/5/2 
s 4
f 2/2/3 1/1/3 6/6/3 4/4/3 
s 8
f 1/1/4 3/7/4 5/8/4 6/6/4 
s 1
f 6/6/5 5/8/5 4/9/5 
# 3 polygons - 2 triangles

